<?xml version="1.0" standalone="no"?>
<!DOCTYPE svg PUBLIC "-//W3C//DTD SVG 20010904//EN"
 "http://www.w3.org/TR/2001/REC-SVG-20010904/DTD/svg10.dtd">
<svg version="1.0" xmlns="http://www.w3.org/2000/svg"
 width="1228.000000pt" height="1326.000000pt" viewBox="0 0 1228.000000 1326.000000"
 preserveAspectRatio="xMidYMid meet">

<g transform="translate(0.000000,1326.000000) scale(0.100000,-0.100000)"
fill="#000000" stroke="none">
<path d="M6447 10523 c-121 -224 -196 -694 -252 -1583 -3 -47 -10 -218 -15
-380 -51 -1487 -62 -2136 -38 -2128 7 3 35 36 62 74 27 38 89 115 138 172 48
56 88 111 88 121 0 11 -9 66 -21 123 -37 188 -40 298 -29 928 10 575 24 974
55 1550 15 270 40 807 49 1048 3 67 1 122 -3 122 -4 0 -19 -21 -34 -47z"/>
<path d="M6554 10545 c-13 -30 -10 -1701 4 -2160 15 -497 17 -1432 4 -1498 -7
-35 -21 -61 -49 -90 -22 -23 -78 -89 -124 -147 -46 -58 -119 -143 -163 -190
-43 -47 -99 -116 -125 -155 -25 -38 -76 -101 -112 -140 -142 -151 -358 -469
-649 -955 -224 -374 -266 -435 -349 -511 -121 -112 -230 -147 -415 -133 -67 5
-182 9 -256 9 -121 0 -143 -3 -208 -27 -205 -74 -341 -214 -419 -429 -23 -66
-26 -89 -27 -209 0 -122 2 -143 28 -220 72 -217 222 -377 421 -447 73 -25 92
-28 215 -27 127 0 140 2 219 32 112 42 197 99 279 187 80 85 126 174 154 295
69 301 69 301 161 422 35 46 88 119 117 163 66 99 282 407 403 575 128 178
207 278 327 415 58 66 162 190 232 275 115 140 239 283 502 580 49 55 93 100
98 100 37 0 -45 -119 -244 -351 -92 -107 -183 -215 -203 -241 l-37 -47 21 -98
c28 -132 50 -578 60 -1268 5 -291 11 -537 14 -545 3 -8 8 -30 11 -47 5 -33 5
-33 -34 -33 l-40 0 0 203 c0 194 -7 374 -31 887 -6 129 -14 375 -17 547 -4
171 -11 315 -15 320 -5 4 -26 -11 -48 -34 l-39 -42 0 -93 c0 -188 21 -651 41
-928 11 -157 21 -373 22 -480 2 -231 2 -232 -120 -375 -42 -49 -90 -119 -107
-155 -28 -59 -31 -74 -31 -165 1 -118 21 -180 89 -273 72 -98 197 -164 311
-166 103 -2 227 75 306 190 48 70 70 146 70 245 0 133 -31 200 -160 344 -46
51 -78 98 -91 132 -40 107 -37 295 15 938 14 165 29 401 35 525 6 124 12 235
15 248 7 30 26 28 57 -5 106 -114 390 -495 603 -808 47 -69 100 -147 118 -173
19 -26 69 -99 112 -162 43 -63 106 -155 140 -205 101 -146 123 -197 191 -445
35 -130 75 -201 164 -291 191 -194 462 -251 710 -150 199 81 333 224 402 428
126 376 -87 766 -477 874 -100 28 -240 29 -410 5 -196 -29 -276 -10 -386 91
-78 73 -133 150 -284 398 -179 294 -402 654 -494 798 -120 190 -209 342 -217
371 -5 23 10 43 153 188 197 203 817 849 1018 1063 83 87 195 206 251 264 214
226 722 774 789 852 22 26 125 140 229 254 195 215 199 220 154 249 -12 7 -22
3 -39 -16 -13 -14 -76 -68 -139 -120 -129 -107 -239 -209 -610 -568 -369 -356
-648 -622 -759 -724 -53 -49 -143 -135 -201 -191 -131 -127 -364 -336 -437
-392 -62 -49 -88 -55 -77 -20 21 70 210 281 748 837 706 730 977 1017 1127
1191 41 47 102 118 137 158 34 39 62 75 62 80 0 5 -6 13 -13 19 -36 30 -701
-608 -1787 -1713 -426 -434 -529 -533 -591 -565 -34 -18 -79 -18 -79 0 0 12
126 167 195 240 34 36 126 134 206 218 329 350 451 478 794 836 616 645 779
821 896 968 61 79 128 159 146 179 26 28 33 42 28 58 -3 12 -10 21 -15 21 -17
0 -122 -89 -395 -335 -248 -223 -490 -457 -1188 -1149 -411 -407 -752 -742
-758 -744 -5 -2 -9 14 -9 35 0 21 -7 299 -15 618 -8 319 -19 814 -25 1100 -6
286 -17 633 -25 770 -17 279 -44 655 -49 670 -2 6 -8 1 -12 -10z m-45 -4169
c36 -19 70 -82 71 -130 0 -43 -35 -109 -69 -129 -42 -25 -126 -22 -181 6 -33
16 -51 34 -68 67 -42 80 -16 160 63 197 39 17 140 11 184 -11z m-2057 -2055
c110 -38 222 -131 269 -223 11 -21 26 -68 35 -105 56 -239 -81 -478 -310 -539
-76 -20 -192 -18 -269 6 -71 22 -168 88 -209 142 -109 143 -137 338 -71 481
55 117 184 227 299 257 57 14 190 4 256 -19z m4099 19 c127 -24 269 -132 329
-249 63 -126 64 -263 1 -396 -75 -161 -229 -255 -417 -255 -232 0 -411 160
-446 398 -11 72 -10 88 10 167 24 97 61 163 126 223 111 102 245 140 397 112z
m-2076 -757 c138 -47 220 -228 169 -376 -32 -93 -138 -167 -238 -167 -72 1
-169 68 -208 145 -26 49 -36 167 -19 218 19 55 93 132 163 166 71 36 70 36
133 14z"/>
<path d="M3974 9521 c-144 -105 -491 -490 -643 -711 l-52 -74 34 -12 c19 -7
47 -19 64 -27 27 -15 32 -15 54 1 37 25 189 160 234 207 42 44 129 100 142 92
4 -3 8 -20 7 -38 -1 -26 -7 -36 -39 -53 -48 -27 -92 -69 -77 -74 19 -6 14 -24
-6 -20 -11 2 -51 -27 -105 -74 -47 -42 -98 -85 -112 -94 l-27 -18 22 -16 c21
-16 24 -16 45 4 54 49 84 66 102 59 15 -6 16 -4 5 9 -10 13 -8 18 13 32 14 9
46 37 72 61 26 25 55 45 65 45 22 0 24 26 2 38 -20 11 -9 36 12 28 8 -3 23 3
34 14 17 17 24 18 45 8 32 -15 32 -38 0 -38 -28 0 -32 -12 -10 -30 18 -15 4
-37 -32 -51 -13 -5 -23 -15 -23 -23 0 -19 -31 -36 -67 -36 -26 -1 -27 -1 -9
-15 11 -8 16 -21 13 -30 -4 -9 -1 -15 9 -15 8 0 12 -5 9 -10 -5 -8 -11 -7 -20
0 -16 14 -22 11 -95 -49 -56 -45 -75 -69 -47 -58 11 4 14 2 10 -9 -4 -11 -13
-14 -29 -10 -13 4 -24 2 -24 -2 0 -12 34 -42 47 -42 16 0 186 156 203 186 9
15 31 35 49 45 19 10 39 23 45 29 15 15 58 12 88 -8 l26 -17 -27 -34 c-29 -35
-51 -35 -51 0 0 12 -7 19 -20 19 -23 0 -24 -4 -10 -31 9 -16 7 -21 -12 -28
-13 -5 -29 -19 -36 -32 -8 -13 -31 -36 -53 -51 -21 -15 -39 -32 -39 -37 0 -18
41 2 66 33 26 30 60 55 78 56 5 0 -23 -32 -63 -72 -57 -57 -74 -69 -82 -57 -5
8 -9 19 -9 24 0 17 -80 -79 -80 -96 0 -9 7 -22 15 -29 20 -17 37 -5 155 109
52 50 100 91 106 91 20 0 36 -28 29 -50 -3 -11 -10 -20 -15 -20 -5 0 -52 -42
-103 -93 l-94 -94 27 -33 27 -33 44 26 c24 14 79 55 123 91 43 36 84 66 90 66
7 0 18 11 24 24 6 14 26 29 46 36 24 7 36 18 38 33 2 17 11 23 36 25 22 2 32
-1 32 -10 0 -16 -104 -128 -119 -128 -11 0 -31 -32 -31 -49 0 -17 40 -33 66
-27 19 5 24 11 19 26 -4 14 -1 22 12 27 10 4 21 10 24 15 3 5 18 4 32 -3 37
-17 45 -4 18 25 l-22 24 22 16 c32 22 42 20 67 -14 27 -36 28 -60 2 -60 -22 0
-71 -45 -67 -63 1 -8 -9 -11 -30 -9 -28 3 -31 1 -26 -18 4 -16 0 -23 -16 -27
-28 -7 -27 -17 5 -38 24 -16 27 -16 47 2 11 10 32 31 45 46 14 15 37 34 53 43
16 8 29 23 29 33 0 25 11 33 28 19 11 -10 17 -7 32 12 17 23 19 23 44 7 33
-22 33 -27 -3 -61 -29 -27 -29 -28 -48 -9 -27 27 -45 19 -31 -12 12 -26 -2
-55 -27 -55 -7 0 -33 -22 -58 -50 -25 -27 -48 -50 -51 -50 -4 0 -20 -16 -37
-35 -17 -19 -39 -37 -49 -40 -10 -3 -17 -12 -14 -19 3 -7 -7 -18 -20 -24 -17
-7 -24 -17 -20 -26 4 -10 -3 -20 -20 -27 -30 -14 -32 -22 -9 -40 13 -11 17
-12 21 -1 5 15 50 59 75 73 21 12 24 -9 5 -31 -25 -28 25 13 82 67 30 28 79
71 108 94 l53 43 -23 17 c-19 15 -20 19 -9 33 12 15 16 15 31 1 25 -23 38 -19
65 25 28 44 36 48 55 25 7 -9 21 -13 30 -10 21 7 47 -20 30 -30 -7 -4 -17 -2
-23 4 -13 13 -47 -13 -47 -36 0 -8 -12 -13 -32 -13 -30 0 -31 -1 -14 -19 22
-24 13 -41 -20 -41 -13 0 -24 -6 -24 -12 -1 -19 -33 -55 -58 -62 -13 -4 -19
-13 -16 -21 4 -9 -3 -16 -20 -21 -27 -6 -35 -28 -13 -38 8 -4 7 -5 -3 -5 -44
3 -59 -2 -54 -16 4 -9 -3 -18 -18 -24 -13 -5 -30 -16 -37 -25 -7 -9 -19 -16
-26 -16 -16 0 -26 -51 -13 -67 16 -19 30 -15 67 18 23 21 30 34 23 41 -7 7
-18 5 -33 -6 -27 -18 -43 -21 -34 -5 12 19 56 30 71 18 10 -8 30 3 88 53 47
39 71 67 65 73 -16 16 -10 25 16 25 13 0 35 12 49 27 24 25 25 26 50 9 14 -9
26 -19 26 -22 0 -13 -22 -44 -31 -44 -19 0 -269 -242 -269 -259 1 -20 34 -61
51 -61 21 0 279 223 279 242 0 18 44 68 61 68 28 0 44 -27 28 -47 -22 -30 -89
-101 -202 -218 l-107 -111 25 -24 c22 -21 26 -22 42 -8 10 8 74 59 143 113 69
55 146 118 172 142 31 28 52 41 63 37 30 -12 -3 -92 -39 -94 -5 0 -14 -6 -20
-14 -6 -7 -69 -64 -141 -126 -71 -62 -134 -116 -139 -120 -4 -5 1 -18 12 -31
l21 -22 68 59 c37 32 97 86 133 119 147 136 178 154 167 95 -6 -29 -37 -61
-255 -265 -63 -59 -63 -59 -43 -79 20 -20 20 -19 98 34 115 79 242 192 237
211 -8 30 21 42 55 24 17 -8 31 -19 31 -23 0 -13 -168 -170 -315 -295 -28 -24
-29 -27 -13 -43 16 -16 19 -16 55 11 63 47 165 135 221 192 29 29 59 53 66 53
20 0 49 -38 42 -55 -3 -8 -13 -19 -23 -22 -10 -4 -52 -39 -93 -79 -41 -39
-100 -94 -130 -122 -52 -48 -54 -52 -38 -68 16 -16 19 -16 52 9 19 15 60 52
90 83 68 67 98 63 34 -5 -92 -96 -68 -82 59 37 73 67 137 122 143 122 6 0 15
12 20 26 8 20 14 24 33 18 50 -15 52 -20 20 -50 -79 -76 -149 -137 -256 -224
l-116 -95 24 -24 23 -24 157 134 c86 74 163 134 172 134 9 0 21 -8 27 -18 12
-20 16 -15 -129 -144 -60 -53 -68 -65 -59 -80 6 -10 16 -18 22 -18 6 0 69 55
141 123 71 67 132 122 135 122 27 0 -56 -103 -201 -249 -62 -62 -113 -119
-113 -127 0 -19 60 26 111 83 19 21 65 65 103 98 38 32 77 72 86 87 9 16 47
62 84 103 58 65 70 74 87 65 23 -13 25 -33 4 -50 -12 -10 -21 -10 -43 -1 -22
10 -25 10 -14 0 27 -29 4 -58 -73 -93 -18 -8 -18 -9 -2 -13 9 -3 17 -8 17 -12
0 -11 -283 -287 -309 -301 -24 -12 -24 -13 -6 -26 27 -20 49 -3 215 159 115
112 144 136 156 126 8 -6 14 -20 14 -29 0 -10 -68 -83 -155 -166 -144 -137
-174 -174 -142 -174 28 0 86 48 204 167 116 117 125 124 138 107 8 -11 15 -26
15 -34 0 -15 -176 -187 -251 -244 -36 -28 -37 -30 -22 -52 19 -29 23 -26 132
78 110 106 189 170 201 163 5 -3 15 -15 20 -26 9 -16 3 -26 -40 -66 -27 -25
-50 -50 -50 -56 0 -5 7 -4 15 3 10 8 15 9 15 2 0 -6 -24 -29 -52 -51 -29 -21
-78 -65 -108 -97 -52 -55 -53 -56 -13 -25 24 18 45 37 48 42 4 5 16 14 28 19
12 6 -5 -14 -38 -45 -56 -52 -58 -57 -40 -67 11 -6 129 -119 262 -251 l242
-240 48 44 c71 65 94 95 104 137 5 20 9 251 9 513 0 456 -1 477 -19 493 -19
17 -20 16 -36 -17 -9 -20 -17 -42 -19 -50 -2 -15 -58 -91 -90 -122 -12 -11
-31 -21 -44 -23 -19 -2 -22 2 -17 18 7 22 -5 26 -22 9 -8 -8 -19 -5 -41 11
-29 22 -30 24 -15 46 16 25 33 32 33 14 0 -5 5 -10 10 -10 6 0 10 7 10 17 0 9
18 33 39 53 22 21 46 52 55 69 10 19 24 31 37 31 17 0 18 3 9 20 -13 25 -30
26 -30 1 0 -32 -25 -45 -60 -31 -55 23 -59 38 -18 76 35 31 36 35 21 50 -16
16 -18 15 -26 -7 -4 -13 -21 -34 -37 -47 l-29 -22 -20 22 -21 22 37 38 c28 29
33 38 20 38 -10 0 -29 -8 -44 -17 -26 -17 -26 -17 -54 17 -33 39 -26 56 27 66
37 7 42 15 19 34 -15 13 -39 -2 -143 -88 l-54 -45 -21 21 -21 22 23 24 c13 14
33 26 44 28 23 3 37 58 15 58 -7 0 -24 9 -38 20 -22 17 -24 21 -12 41 8 13 9
18 2 14 -6 -4 -20 1 -30 10 -17 16 -20 15 -39 -4 -12 -12 -26 -21 -33 -21 -6
0 -22 -10 -35 -22 -18 -17 -28 -20 -40 -12 -9 6 -18 15 -20 21 -6 16 25 43 42
37 10 -4 12 0 8 15 -4 15 1 22 21 27 14 3 26 12 26 19 0 19 -25 36 -42 30 -9
-4 -28 5 -44 19 -29 24 -29 25 -9 41 11 8 37 25 58 36 44 23 44 40 1 51 -16 4
-42 19 -59 32 -29 24 -30 25 -10 40 26 19 10 36 -28 29 -21 -4 -26 -10 -22
-23 4 -12 -5 -26 -29 -44 -41 -31 -44 -31 -76 -6 l-25 19 39 40 c22 23 48 43
58 47 24 7 23 20 -3 27 -16 4 -28 -1 -41 -19 -11 -13 -26 -24 -34 -24 -8 0
-14 -6 -14 -14 0 -7 -11 -21 -25 -30 -23 -15 -26 -15 -52 8 l-28 24 40 39 c22
21 45 47 50 57 9 16 14 17 33 7 19 -10 26 -8 45 10 l22 21 -22 -6 c-13 -4 -35
-1 -52 8 -41 22 -47 20 -46 -11 0 -23 -6 -30 -34 -38 -20 -6 -43 -23 -55 -42
-24 -37 -83 -53 -102 -28 -15 20 5 87 24 80 8 -3 25 -8 38 -11 22 -6 24 -3 24
35 l0 40 -52 -2 c-50 -2 -53 -1 -54 23 -4 61 60 70 102 15 26 -35 58 -43 60
-17 1 6 2 16 3 21 0 5 12 12 26 15 32 8 32 24 -1 32 -25 6 -37 -2 -47 -30 -6
-16 -67 15 -85 43 -9 14 -17 28 -18 30 -2 2 -17 -7 -35 -20 -22 -15 -34 -19
-37 -11 -8 25 -22 11 -22 -22 0 -19 -5 -38 -10 -41 -13 -8 -100 46 -96 60 3
10 54 26 94 28 15 2 25 11 32 33 7 19 24 38 45 50 41 22 43 29 14 45 -33 17
-74 -17 -74 -62 0 -28 -4 -35 -22 -37 -16 -2 -23 2 -23 12 0 26 -27 18 -67
-18 -32 -28 -42 -32 -63 -24 -32 12 -32 11 -21 42 7 18 18 26 34 26 13 0 29 6
35 12 10 10 8 16 -10 29 l-22 17 36 18 c35 16 37 16 67 -5 33 -24 37 -22 21
10 -9 16 -6 22 19 37 39 22 42 52 4 40 -5 -2 -7 -6 -6 -9 1 -4 -6 -14 -16 -23
-17 -16 -21 -16 -52 2 -31 17 -53 61 -32 62 4 1 19 10 32 20 18 16 21 23 12
34 -10 11 -17 9 -41 -15 -33 -33 -51 -36 -72 -11 -31 36 -30 42 6 57 20 9 36
22 36 30 0 22 -23 18 -38 -5 -17 -27 -54 -25 -82 5 l-23 25 22 24 c14 15 30
22 42 19 23 -7 27 22 3 31 -24 9 -46 7 -39 -3 7 -12 -26 -31 -53 -31 -15 0
-19 -5 -15 -18 3 -13 -11 -29 -53 -58 -31 -21 -63 -43 -71 -49 -11 -7 -19 -4
-34 14 -27 33 -21 55 16 59 21 2 36 13 51 35 15 25 26 31 47 29 32 -3 33 2 8
33 l-18 24 -43 -40 c-24 -22 -49 -38 -57 -35 -8 4 -17 -4 -23 -19 -10 -26 -19
-29 -57 -19 -18 5 -23 14 -23 40 0 33 1 34 41 34 22 0 38 3 36 8 -3 4 -1 18 4
31 8 20 13 22 45 16 34 -6 36 -5 31 14 -6 25 16 51 44 51 24 0 24 12 -1 35
-23 21 -22 21 -44 -22 -9 -18 -20 -33 -24 -33 -11 0 -72 60 -72 71 0 5 11 14
24 19 22 8 56 45 56 61 0 4 -16 7 -35 6 -26 -1 -32 -4 -24 -14 8 -9 2 -17 -23
-33 -18 -11 -37 -20 -42 -20 -6 0 -20 -10 -32 -21 -21 -19 -26 -20 -54 -9 -25
10 -28 15 -18 27 7 8 22 19 35 24 13 5 23 17 23 27 0 11 14 26 35 38 19 10 37
25 40 32 5 15 -55 82 -74 82 -5 0 -31 25 -57 55 -51 59 -64 66 -64 36 0 -25
-100 -136 -164 -183 -49 -36 -83 -51 -58 -26 7 7 12 20 12 30 0 22 141 207
175 229 l24 15 -30 37 c-16 20 -43 45 -58 56 l-29 21 -38 -29z m233 -215 l28
-25 -24 -17 c-42 -30 -199 -162 -206 -173 -8 -14 -42 -14 -51 0 -3 6 24 42 63
83 38 39 84 90 102 114 18 23 39 42 46 42 8 0 27 -11 42 -24z m70 -54 c7 -4
14 -17 15 -29 2 -15 -15 -35 -67 -77 -75 -60 -98 -67 -115 -37 -8 17 0 29 61
85 71 66 83 72 106 58z m-377 -159 c17 -29 18 -38 8 -44 -7 -5 -9 -9 -5 -9 7
0 -9 -28 -39 -68 -5 -7 -53 33 -54 45 0 6 -11 20 -25 31 -34 27 -32 38 13 61
56 30 77 27 102 -16z m207 -10 c13 -19 12 -23 -8 -33 -16 -9 -28 -9 -47 -1
l-25 12 24 25 c26 28 36 27 56 -3z m119 -55 c10 -15 -32 -48 -62 -48 -27 0
-37 13 -29 39 12 38 70 44 91 9z m-176 7 c13 -16 6 -35 -14 -35 -18 0 -39 27
-31 40 9 14 31 12 45 -5z m296 -3 c6 -4 17 -18 24 -31 11 -22 10 -27 -10 -43
-12 -10 -37 -18 -56 -18 -27 0 -34 -4 -34 -20 0 -32 -99 -66 -115 -40 -9 15
41 60 75 67 21 4 29 10 26 20 -3 7 1 16 10 20 9 3 20 16 25 29 8 24 33 31 55
16z m-368 -34 c18 -18 14 -38 -7 -38 -24 0 -33 13 -25 34 7 19 16 20 32 4z
m151 -30 c16 -45 -14 -64 -54 -34 -19 14 -19 15 -1 35 25 27 45 27 55 -1z
m-199 -24 c11 -12 10 -18 -3 -32 -16 -15 -18 -15 -33 0 -19 18 -12 48 9 48 8
0 20 -7 27 -16z m124 -38 c9 -13 7 -20 -8 -31 -16 -12 -23 -12 -47 1 -16 8
-29 17 -29 19 0 8 55 34 64 31 5 -1 14 -10 20 -20z m-69 -43 c16 -16 16 -17
-1 -30 -24 -17 -43 -16 -50 2 -6 15 12 45 27 45 4 0 15 -8 24 -17z m-235 -12
c0 -5 -7 -11 -15 -15 -15 -5 -20 5 -8 17 9 10 23 9 23 -2z m396 -2 c3 -6 1
-14 -5 -18 -6 -4 -9 -15 -5 -24 8 -23 -38 -23 -61 -1 -20 21 -15 37 16 45 37
11 47 10 55 -2z m-217 -44 c5 -26 -22 -43 -59 -37 l-31 4 33 29 c36 31 51 32
57 4z m359 -9 c4 -28 3 -29 -33 -23 -42 7 -61 -17 -31 -38 15 -12 15 -13 0
-19 -27 -10 -43 -7 -65 15 l-22 22 24 18 c13 10 29 19 34 19 6 0 16 9 23 21 9
14 21 19 40 17 21 -2 28 -9 30 -32z m-238 -5 c0 -10 -7 -24 -16 -31 -12 -11
-18 -10 -31 3 -13 13 -14 19 -3 31 18 22 50 20 50 -3z m556 -12 c18 -20 18
-21 -6 -40 -14 -10 -35 -22 -47 -25 -13 -3 -23 -13 -23 -20 0 -8 -12 -20 -26
-26 -23 -11 -29 -10 -45 11 -18 22 -18 25 -3 42 10 11 25 19 35 19 10 0 27 14
39 30 25 35 50 38 76 9z m-262 -20 c27 -12 41 -56 24 -76 -14 -17 -40 -16 -63
1 -17 12 -17 15 -2 36 8 12 13 29 10 36 -6 17 -1 17 31 3z m324 -52 l22 -24
-25 -27 c-34 -37 -32 -40 14 -17 l38 20 22 -23 22 -24 -27 -21 c-15 -11 -32
-21 -38 -21 -15 0 -126 79 -126 90 0 10 61 70 71 70 3 0 15 -11 27 -23z m-547
3 c25 -14 24 -35 -3 -54 -20 -14 -24 -14 -45 6 -17 16 -20 25 -12 39 11 21 31
24 60 9z m-84 -35 c-4 -8 -2 -17 3 -20 15 -9 11 -38 -8 -63 -16 -21 -21 -22
-45 -11 -17 8 -26 18 -22 27 3 7 5 20 5 28 0 8 15 23 33 34 38 24 41 24 34 5z
m262 -16 c27 -22 23 -42 -13 -63 -13 -9 -19 -7 -27 7 -7 11 -17 16 -29 12 -22
-7 -31 5 -23 33 4 18 20 26 58 30 6 1 21 -8 34 -19z m161 -9 c13 -8 13 -11 -1
-26 -19 -18 -59 -11 -59 11 0 22 35 31 60 15z m104 -16 c35 -34 5 -84 -51 -84
-30 0 -33 -2 -23 -19 12 -23 -10 -51 -40 -51 -10 0 -26 -3 -35 -7 -14 -5 -16
-2 -10 18 8 30 63 79 87 79 13 0 18 8 18 28 0 27 15 52 31 52 4 0 15 -7 23
-16z m-386 -16 c18 -18 15 -36 -9 -49 -17 -9 -25 -8 -37 5 -14 14 -14 17 3 36
21 23 27 24 43 8z m227 -28 c7 -12 -35 -69 -51 -69 -6 -1 -19 8 -29 19 -17 19
-17 20 6 39 26 22 64 27 74 11z m-750 -20 c3 -5 -1 -10 -9 -10 -9 0 -16 5 -16
10 0 6 4 10 9 10 6 0 13 -4 16 -10z m472 -7 c9 -22 -54 -75 -79 -67 -13 4 -16
1 -12 -9 5 -14 -20 -47 -35 -47 -5 0 -29 -20 -55 -44 -66 -64 -100 -86 -133
-86 l-28 0 40 38 c22 21 60 53 85 72 25 19 58 47 73 62 16 16 35 28 43 28 8 0
14 6 14 14 0 17 47 56 67 56 7 0 17 -8 20 -17z m552 -7 c16 -19 -15 -70 -36
-62 -8 4 -20 6 -28 6 -17 0 -25 33 -13 54 11 20 61 21 77 2z m-71 -83 c3 -19
-1 -23 -22 -23 -14 0 -29 -8 -35 -17 -8 -14 -14 -16 -27 -7 -27 16 -27 30 -2
54 31 28 82 24 86 -7z m-858 -3 c0 -12 -28 -25 -36 -17 -9 9 6 27 22 27 8 0
14 -5 14 -10z m927 -65 c25 -17 20 -48 -6 -43 -9 2 -20 -5 -26 -16 -14 -28
-29 -29 -56 -7 l-24 19 29 31 c33 35 51 38 83 16z m108 -85 c0 -22 -5 -25 -45
-28 -24 -2 -50 -8 -56 -13 -8 -6 -14 -6 -18 0 -3 5 10 23 30 41 45 39 89 39
89 0z m130 -31 c13 -24 14 -34 4 -45 -15 -18 -33 -18 -70 1 l-30 16 23 29 c30
38 54 37 73 -1z m-160 -39 c8 -14 -13 -50 -30 -50 -15 0 -30 35 -20 50 8 13
42 13 50 0z m-85 -19 c20 -38 13 -53 -22 -49 -36 3 -49 28 -28 53 17 21 37 19
50 -4z m182 -24 c14 -22 -9 -51 -41 -53 -40 -2 -46 8 -27 45 12 23 20 28 38
23 13 -3 26 -10 30 -15z m-501 -39 c-22 -22 -45 -37 -51 -33 -12 8 5 35 22 35
6 0 19 11 30 25 11 14 24 23 29 19 5 -3 -8 -24 -30 -46z m278 3 c10 -7 11 -13
2 -30 -7 -11 -14 -21 -17 -21 -13 0 -63 44 -58 52 7 10 55 10 73 -1z m64 -27
c9 -10 -15 -54 -30 -54 -16 0 -17 32 -1 48 13 13 22 15 31 6z m242 -4 c7 -12
-34 -70 -51 -70 -20 0 -32 24 -27 53 5 23 10 27 39 27 18 0 36 -4 39 -10z
m-645 -18 c0 -14 -59 -66 -67 -59 -3 4 6 21 22 37 28 30 45 38 45 22z m496 -7
c19 -14 18 -15 -8 -40 -31 -29 -41 -31 -57 -11 -9 10 -9 20 0 40 14 29 36 33
65 11z m314 -47 c0 -5 -14 -11 -30 -15 -36 -7 -46 -19 -30 -38 10 -11 7 -15
-15 -21 -14 -3 -29 -4 -32 -1 -8 9 4 48 27 85 l20 33 30 -18 c17 -9 30 -21 30
-25z m-100 7 c0 -24 -36 -59 -53 -52 -21 8 -22 41 -2 60 17 17 55 11 55 -8z
m-370 -15 c0 -23 -38 -66 -134 -152 -141 -126 -162 -141 -181 -130 -13 7 9 30
117 122 73 62 139 125 146 141 12 28 52 42 52 19z m220 -23 c-1 -25 -22 -57
-37 -57 -6 0 -16 7 -23 15 -11 13 -8 21 15 45 31 32 45 31 45 -3z m540 -25 c0
-12 -15 -25 -41 -36 -39 -17 -44 -18 -76 -2 l-35 17 38 39 38 39 38 -20 c23
-12 38 -27 38 -37z m-209 27 c27 -27 20 -43 -20 -47 -27 -3 -32 -7 -28 -22 8
-30 -18 -46 -48 -30 -29 15 -32 34 -9 52 9 7 28 25 42 41 32 32 36 33 63 6z
m-771 -19 c0 -5 -2 -10 -4 -10 -3 0 -8 5 -11 10 -3 6 -1 10 4 10 6 0 11 -4 11
-10z m520 -29 c0 -17 -48 -51 -63 -45 -22 8 -21 13 4 40 19 20 59 23 59 5z
m-161 -35 l23 -24 -44 -30 c-24 -16 -47 -30 -53 -30 -5 0 -12 -7 -15 -16 -5
-15 -191 -180 -222 -197 -40 -22 -12 14 98 121 63 62 131 133 151 157 19 23
36 43 37 43 2 0 13 -11 25 -24z m491 -1 l24 -26 -29 -24 c-36 -29 -44 -30 -74
-9 l-23 16 33 34 c18 19 36 34 39 34 4 0 17 -11 30 -25z m-270 -5 c12 -8 10
-14 -14 -39 -23 -24 -33 -28 -47 -20 -24 12 -24 20 1 47 23 24 37 27 60 12z
m84 -39 c16 -6 14 -12 -25 -44 -52 -45 -74 -36 -45 18 19 35 34 40 70 26z
m280 -22 l27 -22 -27 -28 c-32 -34 -41 -35 -72 -11 l-24 18 27 32 c32 38 34
38 69 11z m-188 -65 c-31 -28 -45 -29 -71 -10 -18 13 -18 15 9 39 27 25 29 26
59 10 l31 -16 -28 -23z m-258 24 c-5 -15 -48 -24 -48 -10 0 14 12 22 33 22 10
0 17 -5 15 -12z m72 -18 c13 -8 11 -14 -12 -37 -21 -21 -30 -25 -40 -15 -9 9
-9 18 0 37 12 26 27 31 52 15z m271 -20 c23 -13 24 -28 2 -52 -19 -22 -56 -24
-73 -3 -9 11 -7 19 14 40 28 28 30 29 57 15z m-157 -41 c6 -5 1 -18 -14 -34
-28 -30 -31 -30 -59 -7 -21 16 -21 18 -4 40 18 23 55 23 77 1z m244 -31 c32
-32 -2 -79 -43 -60 -29 13 -32 39 -7 58 21 17 35 17 50 2z m112 3 c0 -6 -4
-13 -10 -16 -5 -3 -10 1 -10 9 0 9 5 16 10 16 6 0 10 -4 10 -9z m96 -27 c10
-39 -26 -71 -63 -58 -36 12 -42 47 -11 68 35 25 66 21 74 -10z m-372 -2 c15
-18 15 -20 -2 -35 -17 -15 -20 -15 -41 -1 -21 15 -21 17 -5 35 21 24 27 24 48
1z m-335 -99 c-63 -63 -121 -108 -180 -138 -44 -23 -35 -12 34 43 34 27 94 79
132 115 39 36 72 61 74 55 2 -6 -25 -39 -60 -75z m411 57 c13 -9 12 -12 -4
-25 -34 -25 -65 -13 -52 20 6 17 34 19 56 5z m165 -1 c9 -14 -24 -49 -46 -49
-26 0 -30 14 -13 38 16 23 48 29 59 11z m-294 -10 c12 -6 18 -17 15 -25 -4
-11 0 -13 19 -8 30 7 44 -18 24 -42 -16 -19 -54 -14 -53 7 1 11 -5 14 -20 12
-13 -3 -28 2 -35 11 -12 14 -11 19 4 36 21 23 20 23 46 9z m332 -27 c19 -21 6
-42 -25 -42 -18 0 -23 16 -12 44 8 21 17 20 37 -2z m-113 -42 c0 -28 -15 -40
-50 -40 -17 0 -30 18 -30 41 0 12 62 39 72 33 5 -3 8 -18 8 -34z m185 -20 c18
-20 18 -21 -2 -42 -21 -20 -23 -20 -47 -4 -30 19 -33 41 -8 55 25 15 37 13 57
-9z m167 3 c25 -23 23 -38 -12 -63 -25 -18 -34 -19 -45 -10 -20 16 -19 49 2
72 20 22 31 23 55 1z m-273 -47 l22 -23 -25 -17 c-32 -20 -33 -20 -46 4 -8 14
-8 26 0 40 14 26 22 25 49 -4z m-289 9 c0 -12 -49 -82 -73 -103 -17 -17 -27
-20 -32 -12 -4 7 5 23 22 39 17 15 38 39 48 54 15 24 35 36 35 22z m480 -35
c11 -20 5 -60 -8 -60 -4 0 -18 9 -32 19 -24 19 -24 20 -6 40 24 26 32 26 46 1z
m-240 -36 c0 -18 -49 -74 -65 -74 -7 0 -20 10 -31 21 -19 21 -19 22 0 33 10 6
31 21 45 33 27 22 51 16 51 -13z m388 24 c18 -18 14 -42 -10 -66 -22 -20 -24
-20 -45 -2 -28 23 -28 28 -1 57 24 26 38 29 56 11z m-284 -21 c-15 -26 -47
-56 -55 -51 -11 6 16 61 33 67 18 6 30 -2 22 -16z m382 -58 c3 -6 -10 -27 -30
-47 l-36 -37 -22 23 -22 22 33 34 c34 35 57 37 77 5z m-176 -1 l20 -22 -29
-30 c-27 -26 -32 -28 -47 -15 -16 13 -17 12 -12 -8 4 -13 3 -23 0 -23 -11 1
-42 26 -42 34 0 10 72 86 81 86 5 0 17 -10 29 -22z m79 -86 c8 -15 4 -25 -23
-51 -31 -30 -33 -31 -49 -13 -21 23 -21 27 -1 57 19 30 59 33 73 7z m-677 -14
c-7 -7 -12 -8 -12 -2 0 14 12 26 19 19 2 -3 -1 -11 -7 -17z m492 -6 c15 -18
15 -21 -5 -45 -25 -32 -40 -34 -64 -7 -18 20 -18 21 5 45 28 30 41 31 64 7z
m80 -57 c12 -13 13 -21 4 -40 -16 -36 -55 -60 -74 -44 -21 17 -17 40 13 71 31
32 36 33 57 13z m-687 -40 c-15 -14 -33 -25 -40 -25 -7 1 2 12 18 25 39 32 58
32 22 0z m831 -24 c10 -6 7 -15 -13 -39 -14 -17 -30 -46 -35 -63 -9 -31 -9
-31 10 -14 11 10 22 16 25 13 3 -2 -9 -15 -26 -27 -22 -16 -34 -20 -43 -12 -6
6 -21 8 -32 5 -12 -3 -26 1 -33 10 -10 12 -3 24 46 75 57 59 75 69 101 52z
m-123 -30 c-18 -36 -33 -47 -47 -33 -7 7 -2 18 17 36 37 34 49 33 30 -3z m5
-164 c0 -2 -12 -14 -27 -28 -14 -13 -24 -19 -21 -14 3 6 8 18 11 28 5 14 37
26 37 14z"/>
<path d="M3804 9096 c-16 -12 -17 -17 -6 -28 14 -14 82 -18 82 -5 0 4 -4 7 -9
7 -5 0 -7 9 -4 20 4 16 0 20 -19 20 -13 0 -33 -6 -44 -14z"/>
<path d="M4527 8968 c-8 -29 -4 -32 23 -18 23 12 22 33 -2 38 -9 2 -18 -6 -21
-20z"/>
<path d="M5007 8468 c-8 -27 8 -47 24 -31 13 13 9 45 -7 50 -6 2 -14 -6 -17
-19z"/>
<path d="M4050 8358 c0 -7 -18 -26 -40 -41 -22 -16 -40 -32 -40 -36 0 -17 48
-51 63 -46 25 10 30 35 6 35 -11 0 -17 5 -14 10 4 7 13 6 27 -1 18 -10 24 -8
35 7 8 11 19 18 24 16 19 -5 21 29 4 48 -20 22 -65 27 -65 8z"/>
<path d="M3907 8237 l-39 -32 26 -24 c27 -26 39 -24 89 14 18 13 18 15 -4 44
-13 17 -25 31 -28 31 -3 0 -23 -15 -44 -33z m48 -27 c3 -5 -3 -10 -14 -10 -12
0 -21 5 -21 10 0 6 6 10 14 10 8 0 18 -4 21 -10z"/>
<path d="M4140 8253 c0 -9 8 -26 18 -37 17 -21 17 -21 -5 -2 -18 15 -25 16
-38 6 -13 -11 -12 -15 3 -36 9 -13 20 -24 23 -24 3 0 23 15 44 34 l39 35 -25
20 c-29 25 -59 27 -59 4z"/>
<path d="M4070 8180 c0 -5 -22 -26 -49 -46 -50 -38 -56 -58 -20 -69 14 -5 36
6 74 34 30 23 55 46 55 51 0 10 -39 40 -52 40 -5 0 -8 -4 -8 -10z"/>
<path d="M4153 7978 c-26 -12 -30 -28 -8 -28 8 0 19 9 25 20 6 11 9 20 8 19
-2 0 -13 -5 -25 -11z"/>
<path d="M5495 7942 c-3 -4 -14 -7 -23 -7 -27 0 -25 -31 3 -49 25 -16 27 -16
45 6 11 13 19 25 20 28 0 10 -38 29 -45 22z"/>
<path d="M5573 7829 c-15 -15 -5 -39 17 -39 21 0 44 25 35 40 -8 13 -38 13
-52 -1z"/>
<path d="M5643 7753 c-16 -6 -17 -33 -2 -33 17 0 49 20 49 30 0 10 -26 12 -47
3z"/>
<path d="M5917 7296 c-38 -34 -45 -50 -27 -61 11 -7 80 64 80 83 0 20 -14 14
-53 -22z"/>
<path d="M5031 7131 c-44 -42 -48 -52 -27 -70 10 -8 24 -3 60 24 25 20 46 40
46 44 0 4 -8 15 -19 25 -17 16 -20 14 -60 -23z"/>
</g>
</svg>
